<?xml version="1.0" encoding="utf-8"?>
<!-- Generator: Adobe Illustrator 27.5.0, SVG Export Plug-In . SVG Version: 6.00 Build 0)  -->
<svg version="1.1" xmlns="http://www.w3.org/2000/svg" xmlns:xlink="http://www.w3.org/1999/xlink" x="0px" y="0px"
	 viewBox="0 0 2850.004 1900" style="enable-background:new 0 0 2850.004 1900;" xml:space="preserve">
<g id="BG">
	<rect x="0" y="0" style="fill:#FFFFFF;" width="2850.004" height="1900"/>
</g>
<g id="graphics">
	<g>
		<g>
			<path style="fill:#515151;" d="M1396.14,996.151v23.672h-91.109v12.935h78.988v23.265h-78.988v13.748h91.109v23.672h-119.906
				v-97.291H1396.14z"/>
			<path style="fill:#515151;" d="M1494.978,996.151l61.823,97.291h-31.074l-13.097-20.743h-62.393l-13.26,20.743h-31.075
				l61.905-97.291H1494.978z M1464.554,1050.084h33.759l-16.839-26.519L1464.554,1050.084z"/>
			<path style="fill:#515151;" d="M1701.029,996.151v23.672h-95.014c-2.929-0.054-5.478,0.895-7.646,2.847
				c-2.062,1.845-3.091,4.149-3.091,6.915v30.424c0,2.657,1.058,4.962,3.172,6.914c2.115,1.736,4.637,2.685,7.565,2.848h69.634
				v-12.121h-32.295v-22.614h61.01v58.407H1598.45c-8.785,0-16.323-2.819-22.614-8.46c-6.183-5.64-9.273-12.446-9.273-20.418
				v-39.454c0.163-8.025,3.28-14.858,9.354-20.499c6.346-5.64,13.856-8.46,22.533-8.46H1701.029z"/>
			<path style="fill:#515151;" d="M1747.805,996.151v73.619h86.31v23.672h-115.106v-97.291H1747.805z"/>
			<path style="fill:#515151;" d="M1968.663,996.151v23.672h-91.109v12.935h78.988v23.265h-78.988v13.748h91.109v23.672h-119.906
				v-97.291H1968.663z"/>
		</g>
	</g>
	<path style="fill:#AD2828;" d="M832.667,915.466c18.177-8.508,40.003-16.254,65.169-21.832c-25.674,1.142-46.144,4.263-62.61,8.402
		c1.942-7.606,4.68-15.147,8.139-22.72c22.279-4.958,49.669-7.81,80.995-6.252c-30.743-6.985-54.73-9.028-73.597-8.412
		c7.426-13.094,16.505-24.119,27.183-33.94c10.675,4.813,24.297,8.397,41.85,9.278c-12.462-4.265-23.668-10.014-33.475-16.482
		c4.841-3.906,9.95-7.646,15.358-11.262c21.833,14.322,41.163,20.473,61.112,25.94c18.901-28.842,49.976-45.657,76.299-66.215
		c17.22-13.448,13.019-19.256,2.808-28.877c-16.768-15.8-22.667-32.333-21.539-48.614c17.097,10.62,38.248,26.07,73.86,35.125
		c-31.187-14.029-58.813-33.443-64.58-66.721c21.692,20.829,50.906,39.373,83.854,52.059c-28.83-18.781-64.25-41.186-65.729-75.524
		c18.661,18.46,43.73,37.378,91.923,67.616c-33.144-29.904-64.552-48.434-69.291-83.635c30.659,31.16,67.564,55.102,103.307,79.001
		c27.421,18.338,12.505,52.83,2.404,76.76c-9.638,22.841-12.705,52.626,5.024,70.487c-31.736,9.587-65.708,20.86-108.825,15.212
		c54.694,20.428,87.644-5.272,150.537,0.584c0.003,0,0.009,0.001,0.014,0.001c39.979,5.609,70.301,13.6,73.026,36.001
		c10.271,2.882,19.936,7.934,22.572,17.379c-47.446-11.422-82.773,0.937-103.349,10.646c-21.319,10.061-33.866,20.939-40.328,32.933
		c-8.995-16.007-13.751-32.408-8.239-46.804c-19.11,21.746-3.296,61.943,7.714,99.092c13.893,45.22,35.531,115.145-9.853,147.998
		c-96.447,69.815-194.323,113.298-306.386,219.207c0.476-33.86,46.435-109.681,145.316-185.649
		c-117.724,61.498-148.683,116.593-161.005,146.365c3.295-103.457,49.977-131.073,153.646-200.364
		c-100.465,44.323-139.949,88.222-158.669,118.433c9.636-89.4,74.298-140.379,148.292-169.234
		c-55.625,8.006-79.348,25.14-104.425,47.108c19.066-49.068,50.249-56.511,83.476-78.868c19.28-12.974,33.587-29.252,19.218-52.305
		c-18.899-30.318-45.745-62.372-43.78-101.223c-37.695,6.981-78.956,22.329-105.554,46.867
		C831.632,939.947,831.128,927.558,832.667,915.466z"/>
	<g>
		<g>
			<path style="fill:#6C6D6D;" d="M1282.19,1141.713c0-6.813,4.805-11.904,11.044-11.833c2.367,0.071,4.805,0.789,6.598,1.937v3.084
				c-1.865-1.363-4.016-2.152-6.239-2.224c-4.805-0.071-8.463,3.944-8.463,9.323v4.805h11.546v2.653h-11.546v34.353h-2.94v-34.353
				h-4.733v-2.653h4.733V1141.713z M1306.86,1183.811h-2.94v-53.214h2.94V1183.811z"/>
			<path style="fill:#6C6D6D;" d="M1331.387,1189.189c-2.295,5.594-5.953,8.605-10.327,8.605c-2.725,0-5.164-0.717-7.1-2.151
				l1.291-2.582c1.65,1.147,3.586,1.722,5.666,1.722c3.371,0,6.239-2.367,8.032-6.741l1.721-4.231l-15.419-37.364h3.156
				l13.769,33.851l13.411-33.851h3.156L1331.387,1189.189z"/>
			<path style="fill:#6C6D6D;" d="M1360.146,1135.688c0,1.507-1.147,2.654-2.51,2.654c-1.362,0-2.51-1.147-2.51-2.654
				c0-1.434,1.148-2.581,2.51-2.581C1358.999,1133.107,1360.146,1134.255,1360.146,1135.688z M1356.13,1183.811v-37.364h2.941
				v37.364H1356.13z"/>
			<path style="fill:#6C6D6D;" d="M1406.834,1161.005v22.806h-3.012v-22.232c0-7.673-4.518-12.191-12.192-12.191
				c-8.606,0.215-13.913,5.594-14.558,14.2v20.224h-3.012v-37.364h3.012v9.538c2.51-6.167,7.817-9.467,15.276-9.609
				C1401.455,1146.375,1406.834,1151.896,1406.834,1161.005z"/>
			<path style="fill:#6C6D6D;" d="M1451.945,1179.723c0,11.044-7.1,18.072-18.072,18.001c-5.953-0.144-10.758-2.151-15.133-6.096
				l1.578-2.224c3.873,3.657,8.104,5.379,13.483,5.522c9.252,0.071,15.275-5.881,15.275-15.204v-7.028
				c-2.581,5.952-8.176,9.61-15.275,9.61c-10.04,0-17.284-7.53-17.284-17.93c0-10.47,7.243-18,17.213-18
				c7.171,0,12.693,3.729,15.347,9.682v-9.61h2.869V1179.723z M1449.076,1164.447c0-8.893-6.31-15.348-14.917-15.348
				c-8.606,0-14.845,6.455-14.845,15.348c0,8.821,6.168,15.275,14.845,15.275
				C1442.766,1179.723,1449.076,1173.269,1449.076,1164.447z"/>
			<path style="fill:#6C6D6D;" d="M1510.682,1176.424c-3.156,5.163-8.463,7.458-14.917,7.458c-7.387,0-12.336-4.661-12.336-10.972
				c0-6.24,5.308-10.041,13.913-10.041h13.267v-3.657c-0.071-6.312-3.729-10.112-11.188-10.112c-4.662,0-8.606,1.865-12.551,4.877
				l-1.434-2.295c4.446-3.228,8.749-5.307,14.415-5.307c8.82,0,13.626,4.876,13.697,12.622l0.143,24.813h-2.94L1510.682,1176.424z
				 M1510.682,1171.619v-6.097h-13.053c-7.316,0-11.331,2.511-11.331,7.315c0,4.948,3.801,8.319,9.896,8.319
				C1503.151,1181.157,1508.387,1178.145,1510.682,1171.619z"/>
			<path style="fill:#6C6D6D;" d="M1564.612,1165.164c0,10.901-7.459,18.718-18.001,18.718c-7.315,0-13.053-3.801-15.85-9.825v9.754
				h-3.012v-53.214h3.012v25.675c2.797-6.096,8.534-9.896,15.85-9.896C1557.082,1146.375,1564.612,1154.191,1564.612,1165.164z
				 M1561.672,1165.164c0-9.251-6.455-15.992-15.491-15.992c-8.965,0-15.419,6.741-15.419,15.992
				c0,9.252,6.454,15.921,15.419,15.921C1555.217,1181.085,1561.672,1174.416,1561.672,1165.164z"/>
			<path style="fill:#6C6D6D;" d="M1595.021,1149.315l-1.291,2.438c-2.582-1.649-5.881-2.653-9.467-2.653
				c-5.235,0-9.323,2.008-9.323,6.455c0,10.04,21.802,5.092,21.802,18.287c0,6.957-6.239,10.04-12.98,10.04
				c-5.235,0-10.256-1.864-13.698-5.163l1.363-2.295c3.227,3.012,7.745,4.733,12.479,4.733c5.235,0,9.753-2.08,9.968-6.813
				c0.287-10.542-21.801-5.737-21.801-18.574c0-6.526,5.665-9.395,12.263-9.395
				C1588.495,1146.375,1592.081,1147.522,1595.021,1149.315z"/>
			<path style="fill:#6C6D6D;" d="M1624.426,1181.229c-2.367,1.649-5.021,2.653-7.817,2.653c-5.307,0.072-8.463-3.37-8.463-10.398
				v-23.522h-5.45v-2.582h5.45v-9.252h2.869v9.252h12.693v2.582h-12.693v23.164c0,5.307,2.08,7.889,5.952,7.816
				c2.151,0,4.375-0.788,6.312-2.151L1624.426,1181.229z"/>
			<path style="fill:#6C6D6D;" d="M1636.546,1155.841c2.366-6.023,7.243-9.323,13.913-9.466v3.083
				c-8.248,0-13.267,5.451-13.913,14.129v20.224h-3.013v-37.364h3.013V1155.841z"/>
			<path style="fill:#6C6D6D;" d="M1680.58,1176.424c-3.156,5.163-8.463,7.458-14.917,7.458c-7.387,0-12.336-4.661-12.336-10.972
				c0-6.24,5.307-10.041,13.913-10.041h13.268v-3.657c-0.071-6.312-3.729-10.112-11.188-10.112c-4.662,0-8.607,1.865-12.551,4.877
				l-1.434-2.295c4.446-3.228,8.749-5.307,14.415-5.307c8.82,0,13.626,4.876,13.697,12.622l0.144,24.813h-2.941L1680.58,1176.424z
				 M1680.58,1171.619v-6.097h-13.053c-7.315,0-11.331,2.511-11.331,7.315c0,4.948,3.801,8.319,9.896,8.319
				C1673.05,1181.157,1678.285,1178.145,1680.58,1171.619z"/>
			<path style="fill:#6C6D6D;" d="M1724.9,1151.61l-1.722,2.151c-3.012-2.797-6.885-4.519-11.546-4.519
				c-8.965,0-15.419,6.526-15.419,15.85c0,9.467,6.454,15.992,15.419,15.992c5.021,0,9.323-1.864,12.191-5.235l1.793,1.937
				c-3.299,3.873-8.247,6.096-14.056,6.096c-10.543,0-18.288-7.745-18.288-18.718s7.745-18.789,18.288-18.789
				C1716.939,1146.375,1721.601,1148.311,1724.9,1151.61z"/>
			<path style="fill:#6C6D6D;" d="M1754.951,1181.229c-2.367,1.649-5.02,2.653-7.817,2.653c-5.307,0.072-8.463-3.37-8.463-10.398
				v-23.522h-5.45v-2.582h5.45v-9.252h2.869v9.252h12.693v2.582h-12.693v23.164c0,5.307,2.08,7.889,5.952,7.816
				c2.151,0,4.375-0.788,6.312-2.151L1754.951,1181.229z"/>
		</g>
	</g>
</g>
</svg>
